<svg id="logo" xmlns="http://www.w3.org/2000/svg" viewBox="0 0 261.88 261.88">
  <defs>
    <style>
      .cls-1 {
        fill: #fff;
      }

      .cls-2 {
        fill: #e60012;
      }
    </style>
  </defs>
  <rect class="cls-2" width="261.88" height="261.88"/>
  <path class="cls-1" d="M47.87,170.01l7.29,9.82h2.9v-14.68h-2.98v9.65l-7.22-9.65h-2.97v14.68h2.98v-9.82h0ZM119.54,165.15h-12.44v3.12h4.69v11.57h3.16v-11.57h4.59s0-3.12,0-3.12ZM118.64,215.05h6.17v-27.71h-6.17v27.71h0ZM86.45,170.01l7.29,9.82h2.9v-14.68h-2.98v9.65l-7.22-9.65h-2.97v14.68h2.98v-9.82h0ZM100.38,207.44l-5.87-20.1h-4.92l-5.84,20.03-5.33-20.03h-6.03l7.84,27.71h6.66l5.17-18.25,5.13,18.25h6.69l7.88-27.71h-6.03l-5.35,20.1ZM56.39,198.22c-4-.66-6.59-1.4-6.59-3.26,0-2.15,2.88-2.98,6.74-2.98,3.59,0,7.19,1.37,8.48,1.91l1.97-4.8c-1.39-.55-5.82-2.13-10.73-2.13-5.99,0-12.35,2.92-12.35,8.33,0,4.39,3.09,6.63,11.04,7.99,5.6.96,8.68,1.49,8.6,3.9-.05,1.33-1.07,3.55-7.39,3.55-5.08,0-8.65-1.84-9.9-2.59l-2.62,4.73c1.4.74,6.09,2.93,12.12,2.93,8.81,0,13.47-3.05,13.47-8.83,0-3.35-1.13-6.84-12.85-8.76M72.4,165.15h-3.27v14.68h3.27v-14.68ZM167.05,179.83v-14.68h-2.98v9.65l-7.22-9.65h-2.97v14.68h2.98v-9.82l7.29,9.82h2.9ZM141.71,177.11h-8.44v-3.44h7.8v-2.66h-7.8v-3.17h8.44v-2.7h-11.42v14.68h11.42v-2.72h0ZM219.86,211.71h1.27v3.33h.8v-3.33h1.24v-.79h-3.31v.79h0ZM210.41,164.65c-4.31,0-7.82,3.52-7.82,7.84s3.51,7.84,7.82,7.84,7.82-3.52,7.82-7.84-3.51-7.84-7.82-7.84M210.41,177.06c-2.52,0-4.56-2.05-4.56-4.57s2.05-4.57,4.56-4.57,4.56,2.05,4.56,4.57-2.05,4.57-4.56,4.57M227.36,210.92l-1.04,3.02-1.04-3.02h-1.14v4.12h.74v-3.17l1.08,3.13v.04h.72v-.04l1.09-3.13v3.17h.74v-4.12h-1.15ZM211.41,198.26h-12.94v-10.92h-5.73v27.71h5.73v-11.05h12.94v11.05h5.73v-27.71h-5.73v10.92ZM131.56,193.22h8.85v21.83h5.96v-21.83h8.65v-5.88h-23.47v5.88h0ZM174.3,192.6c3.13,0,6.04,1.67,7.61,4.3l4.51-3.92c-2.76-4.1-7.31-6.54-12.28-6.54-8.15,0-14.79,6.63-14.79,14.79s6.64,14.79,14.79,14.79c4.96,0,9.52-2.44,12.28-6.54l-4.51-3.92c-1.56,2.63-4.48,4.3-7.61,4.3-4.85,0-8.79-3.87-8.79-8.63s3.94-8.63,8.79-8.63M185.54,165.15h-6.07v14.68h6.07c4.16,0,7.55-3.29,7.55-7.34s-3.39-7.34-7.55-7.34M185.69,176.75h-3.2v-8.51h3.2c2.35,0,4.26,1.91,4.26,4.26s-1.91,4.26-4.26,4.26"/>
  <path class="cls-1" d="M83.3,45.87h-21.63c-14.01,0-25.37,11.36-25.37,25.37v48.2c0,14.01,11.36,25.37,25.37,25.37h21.63c.4,0,.73-.32.73-.73V46.59c0-.4-.32-.72-.73-.72ZM76.04,136.83h-14.37c-4.65,0-9.01-1.81-12.3-5.09s-5.09-7.65-5.09-12.3v-48.2c0-4.65,1.81-9.02,5.09-12.3,3.29-3.28,7.65-5.09,12.3-5.09h14.37v82.99h0ZM61.01,66.25c5.14,0,9.3,4.17,9.3,9.3s-4.16,9.3-9.3,9.3-9.3-4.17-9.3-9.3,4.17-9.3,9.3-9.3ZM109.87,45.87h-15.31c-.36,0-.64.29-.64.65v97.57c0,.4.32.73.72.73h15.23c14.01,0,25.37-11.36,25.37-25.37v-48.2c0-14.01-11.36-25.37-25.37-25.37h0ZM113.5,110.29c-5.53,0-10-4.48-10-10s4.48-10,10-10,10,4.48,10,10-4.48,10-10,10Z"/>
  <path class="cls-1" d="M151.91,144.81v-17.01c1.76-1.44,8.4-7.16,15.43-13.2,6.32-5.44,12.63-10.89,19.07-16.18,4.85-3.99,14.07-11.31,14.36-18.49.35-8.44-5.64-13.91-14.58-13.91-5.33,0-11.58,2.96-15.37,6.18s-8.65,7.38-8.65,7.38l-14.01-15.18c11.89-13.33,24.68-20.09,38-20.09,28.4-.7,49.8,30.95,28.2,55.76-7.84,8.64-16.73,16.73-25.88,23.92h37.08v20.82h-73.67.02Z"/>
</svg>